# xmcd CD database file
#
# Track frame offsets:
#	150
#	18132
#	33707
#	51087
#	68115
#	85352
#	100550
#	116405
#	132840
#	151422
#
# Disc length: 2238 seconds
#
# Revision: 0
# Processed by: cddbd v1.5.1PL0 Copyright (c) Steve Scherf et al.
# Submitted via: cdripper 1,0,14,817
#
DISCID=7708bc0a
DTITLE=Yui 14 CD jor huajai ???? -  jor huajai ????
DYEAR=2003
DGENRE=Country
TTITLE0=jor huajai
TTITLE1=koi jon soi gao
TTITLE2=gumlung jai
TTITLE3=pid ru tii ja rak
TTITLE4=koi pi tug tedsakan
TTITLE5=nangsao tang on
TTITLE6=lor hia len
TTITLE7=pai kangna gon ter
TTITLE8=togrun laew pii
TTITLE9=rua manus
EXTD=YEAR: 2003
EXTT0=
EXTT1=
EXTT2=
EXTT3=
EXTT4=
EXTT5=
EXTT6=
EXTT7=
EXTT8=
EXTT9=
PLAYORDER=
